<svg version="1.1" xmlns="http://www.w3.org/2000/svg" xmlns:xlink="http://www.w3.org/1999/xlink" width="1209.22965" height="187.93187" viewBox="0,0,1209.22965,187.93187"><g transform="translate(611.00449,-78.13055)"><g data-paper-data="{&quot;isPaintingLayer&quot;:true}" fill-rule="nonzero" stroke-linejoin="miter" stroke-miterlimit="10" stroke-dasharray="" stroke-dashoffset="0" style="mix-blend-mode: normal"><path d="M-611.00449,263.14744v-184.96153h1209.22965v184.96153z" fill="#000000" stroke="none" stroke-width="0" stroke-linecap="butt"/><path d="M236.15423,195.96801v-92.48077h317.57546v92.48077z" fill="#ffffff" stroke="none" stroke-width="0" stroke-linecap="butt"/><text transform="translate(278.90477,176.6555) scale(1.52441,1.52441)" font-size="40" xml:space="preserve" fill="#000000" fill-rule="nonzero" stroke="none" stroke-width="1" stroke-linecap="butt" stroke-linejoin="miter" stroke-miterlimit="10" stroke-dasharray="" stroke-dashoffset="0" font-family="Sans Serif" font-weight="normal" text-anchor="start" style="mix-blend-mode: normal"><tspan x="0" dy="0">Kil0y</tspan><tspan x="0" dy="46.150000000000006px"> </tspan></text><text transform="translate(421.98822,184.04644) scale(2.3429,2.3429)" font-size="40" xml:space="preserve" fill="#000000" fill-rule="nonzero" stroke="none" stroke-width="1" stroke-linecap="butt" stroke-linejoin="miter" stroke-miterlimit="10" stroke-dasharray="" stroke-dashoffset="0" font-family="Sans Serif" font-weight="normal" text-anchor="start" style="mix-blend-mode: normal"><tspan x="0" dy="0">OS</tspan></text><text transform="translate(241.28279,234.69653) scale(0.46277,0.46277)" font-size="40" xml:space="preserve" fill="#ffffff" fill-rule="nonzero" stroke="none" stroke-width="1" stroke-linecap="butt" stroke-linejoin="miter" stroke-miterlimit="10" stroke-dasharray="" stroke-dashoffset="0" font-family="Sans Serif" font-weight="normal" text-anchor="start" style="mix-blend-mode: normal"><tspan x="0" dy="0">A 32-bit microkernel operating system </tspan></text><path d="M-312.47773,175.65217c0,-6.53935 5.30119,-11.84054 11.84052,-11.84054c6.53935,0 11.84052,5.30119 11.84052,11.84054c0,6.53935 -5.30117,11.84052 -11.84052,11.84052c-6.53935,0 -11.84052,-5.30117 -11.84052,-11.84052z" fill="#ffffff" stroke="none" stroke-width="0" stroke-linecap="butt"/><path d="M31.98789,165.9535c0,-2.89222 2.34463,-5.23685 5.23685,-5.23685c2.89222,0 5.23685,2.34463 5.23685,5.23685c0,2.89222 -2.34461,5.23685 -5.23685,5.23685c-2.89222,0 -5.23685,-2.34461 -5.23685,-5.23685z" fill="#ffffff" stroke="#ffffff" stroke-width="0.5" stroke-linecap="butt"/><path d="M-382.77104,195.27989c0,-2.3138 1.87568,-4.18948 4.18948,-4.18948c2.31378,0 4.18948,1.87568 4.18948,4.18948c0,2.3138 -1.8757,4.1895 -4.18948,4.1895c-2.31378,0 -4.18948,-1.8757 -4.18948,-4.1895z" fill="#ffffff" stroke="#ffffff" stroke-width="0.5" stroke-linecap="butt"/><path d="M-250.00612,78.81678l-51.03891,96.84307l-77.21272,19.63035l-28.79118,67.17943" fill="none" stroke="#ffffff" stroke-width="0.5" stroke-linecap="round"/><path d="M-367.15191,78.38055l65.67066,98.58799l338.51451,-10.46952l34.46217,95.97061" fill="none" stroke="#ffffff" stroke-width="0.5" stroke-linecap="round"/><path d="M199.74706,78.38055l-164.02249,87.24601l-106.0039,-86.37355" fill="none" stroke="#ffffff" stroke-width="0.5" stroke-linecap="round"/><path d="M-378.49389,193.10905l-232.07438,-100.33291" fill="none" stroke="#ffffff" stroke-width="0.5" stroke-linecap="round"/><path d="M-304.3348,180.45838l-5.67099,-8.7246" fill="none" stroke="#ffffff" stroke-width="0.5" stroke-linecap="round"/><path d="M-115.57327,262.06435l-185.22999,-85.90376" fill="none" stroke="#ffffff" stroke-width="0.5" stroke-linecap="round"/></g></g></svg>