<svg version="1.1" xmlns="http://www.w3.org/2000/svg" xmlns:xlink="http://www.w3.org/1999/xlink" width="693" height="107.80901" viewBox="0,0,693,107.80901"><g transform="translate(56.54982,-124.0044)"><g data-paper-data="{&quot;isPaintingLayer&quot;:true}" fill-rule="nonzero" stroke-linejoin="miter" stroke-miterlimit="10" stroke-dasharray="" stroke-dashoffset="0" style="mix-blend-mode: normal"><path d="M-56.54981,230.14286v-106h693v106z" fill="#000000" stroke="none" stroke-width="0" stroke-linecap="butt"/><path d="M428.95019,191.64286v-53h182v53z" fill="#ffffff" stroke="none" stroke-width="0" stroke-linecap="butt"/><text transform="translate(453.45019,180.57501) scale(0.87363,0.87363)" font-size="40" xml:space="preserve" fill="#000000" fill-rule="nonzero" stroke="none" stroke-width="1" stroke-linecap="butt" stroke-linejoin="miter" stroke-miterlimit="10" stroke-dasharray="" stroke-dashoffset="0" font-family="Sans Serif" font-weight="normal" text-anchor="start" style="mix-blend-mode: normal"><tspan x="0" dy="0">Kil0y</tspan><tspan x="0" dy="46.15px"> </tspan></text><text transform="translate(535.45019,184.8107) scale(1.3427,1.3427)" font-size="40" xml:space="preserve" fill="#000000" fill-rule="nonzero" stroke="none" stroke-width="1" stroke-linecap="butt" stroke-linejoin="miter" stroke-miterlimit="10" stroke-dasharray="" stroke-dashoffset="0" font-family="Sans Serif" font-weight="normal" text-anchor="start" style="mix-blend-mode: normal"><tspan x="0" dy="0">OS</tspan></text><text transform="translate(431.88933,213.83787) scale(0.26521,0.26521)" font-size="40" xml:space="preserve" fill="#ffffff" fill-rule="nonzero" stroke="none" stroke-width="1" stroke-linecap="butt" stroke-linejoin="miter" stroke-miterlimit="10" stroke-dasharray="" stroke-dashoffset="0" font-family="Sans Serif" font-weight="normal" text-anchor="start" style="mix-blend-mode: normal"><tspan x="0" dy="0">A 32-bit microkernel operating system </tspan></text><path d="M114.53353,180.00001c0,-3.74765 3.03807,-6.78572 6.78571,-6.78572c3.74765,0 6.78571,3.03807 6.78571,6.78572c0,3.74765 -3.03806,6.78571 -6.78571,6.78571c-3.74765,0 -6.78571,-3.03806 -6.78571,-6.78571z" fill="#ffffff" stroke="none" stroke-width="0" stroke-linecap="butt"/><path d="M311.94407,174.44178c0,-1.65751 1.34369,-3.0012 3.0012,-3.0012c1.65751,0 3.0012,1.34369 3.0012,3.0012c0,1.65751 -1.34368,3.0012 -3.0012,3.0012c-1.65751,0 -3.0012,-1.34368 -3.0012,-3.0012z" fill="#ffffff" stroke="#ffffff" stroke-width="0.5" stroke-linecap="butt"/><path d="M74.24899,191.2485c0,-1.32602 1.07494,-2.40096 2.40096,-2.40096c1.32601,0 2.40096,1.07494 2.40096,2.40096c0,1.32602 -1.07495,2.40097 -2.40096,2.40097c-1.32601,0 -2.40096,-1.07495 -2.40096,-2.40097z" fill="#ffffff" stroke="#ffffff" stroke-width="0.5" stroke-linecap="butt"/><path d="M150.33552,124.50441l-29.25,55.5l-44.25,11.25l-16.5,38.5" fill="none" stroke="#ffffff" stroke-width="0.5" stroke-linecap="round"/><path d="M334.58553,229.75441l-19.75,-55l-194,6l-37.63534,-56.5" fill="none" stroke="#ffffff" stroke-width="0.5" stroke-linecap="round"/><path d="M408.08553,124.25441l-94,50l-60.75,-49.5" fill="none" stroke="#ffffff" stroke-width="0.5" stroke-linecap="round"/><path d="M76.70019,190.00441l-133,-57.5" fill="none" stroke="#ffffff" stroke-width="0.5" stroke-linecap="round"/><path d="M119.20018,182.75441l-3.25,-5" fill="none" stroke="#ffffff" stroke-width="0.5" stroke-linecap="round"/><path d="M121.22408,180.29138l106.15385,49.23077" fill="none" stroke="#ffffff" stroke-width="0.5" stroke-linecap="round"/></g></g></svg>